<?xml version="1.0" encoding="UTF-8"?>
<svg version="1.1" xmlns="http://www.w3.org/2000/svg" width="1000" height="1000">
<path d="M0 0 C81.54500883 -0.05142331 163.09001962 -0.0991211 244.63504028 -0.12702942 C245.84211007 -0.12744359 247.04917985 -0.12785776 248.29282751 -0.12828448 C274.5262888 -0.1372634 300.75975026 -0.14557392 326.99321198 -0.15319599 C339.85826766 -0.15693797 352.72332329 -0.16082763 365.58837891 -0.16479492 C366.86860027 -0.1651872 368.14882164 -0.16557948 369.4678376 -0.16598364 C410.95658062 -0.17876557 452.44531137 -0.20129792 493.93404696 -0.22889166 C536.57239859 -0.25719846 579.21074344 -0.27565843 621.84910431 -0.28174497 C627.87275215 -0.28260942 633.89639996 -0.28358633 639.92004776 -0.28463173 C641.69834201 -0.28493513 641.69834201 -0.28493513 643.51256139 -0.28524467 C662.58919221 -0.28878854 681.66580203 -0.30269928 700.74242428 -0.3204961 C719.92517253 -0.33817035 739.10789997 -0.34490079 758.29065607 -0.34050413 C769.68465808 -0.33822403 781.07858391 -0.34429108 792.47257214 -0.36239263 C800.09046404 -0.37366716 807.70830624 -0.3739735 815.32620161 -0.36549544 C819.66247516 -0.36097957 823.99860497 -0.36110513 828.33486293 -0.37464955 C861.41892285 -0.47200913 861.41892285 -0.47200913 876 3 C877.01949324 3.24247792 878.03898649 3.48495583 879.08937347 3.73478156 C881.46486033 4.33282669 883.78964719 5.01175831 886.125 5.75 C886.95354492 6.00676514 887.78208984 6.26353027 888.63574219 6.52807617 C919.30204149 16.31362753 947.5909389 35.1567996 967 61 C967.78632812 62.00933594 968.57265625 63.01867188 969.3828125 64.05859375 C988.91596933 89.69827002 1000.18219934 121.90672779 1000.13142776 154.11614037 C1000.13450672 155.93521073 1000.13450672 155.93521073 1000.13764787 157.79102999 C1000.14232555 161.15503052 1000.1425459 164.51897755 1000.14087028 167.88297735 C1000.14013749 171.54376824 1000.1451661 175.20455203 1000.1494453 178.86533988 C1000.15701677 186.12520524 1000.15921792 193.38506326 1000.15977435 200.64493216 C1000.16068884 209.34143407 1000.16735894 218.0379292 1000.17412117 226.73442819 C1000.19017523 247.75350177 1000.19608388 268.77257462 1000.20086992 289.79165322 C1000.20320657 299.73745231 1000.20680931 309.68325082 1000.2105653 319.62904946 C1000.22340059 353.68231716 1000.23411955 387.73558453 1000.2375679 421.7888546 C1000.23778953 423.92622891 1000.23801132 426.06360323 1000.23823325 428.20097754 C1000.23845389 430.34348228 1000.23867438 432.48598702 1000.2388947 434.62849176 C1000.23933725 438.92664425 1000.23978437 443.22479673 1000.24023438 447.52294922 C1000.24034377 448.58863983 1000.24045316 449.65433045 1000.24056586 450.75231472 C1000.24419576 485.30033952 1000.2601134 519.84834333 1000.28342474 554.3963601 C1000.3080323 590.93229918 1000.32174118 627.46822627 1000.32293582 664.00417387 C1000.32310727 668.01658289 1000.3233227 672.0289919 1000.32357025 676.04140091 C1000.32362602 677.02935104 1000.32368179 678.01730116 1000.32373925 679.03518917 C1000.32488892 694.92019277 1000.33590382 710.8051748 1000.35045731 726.69017112 C1000.36483856 742.66367214 1000.3680501 758.63714557 1000.36001733 774.6106513 C1000.35556869 784.09396288 1000.359391 793.57718524 1000.37525584 803.06048506 C1000.38503518 809.40448388 1000.38379949 815.74842048 1000.37381961 822.09241878 C1000.36844879 825.70096704 1000.36764823 829.30934449 1000.38032833 832.91787831 C1000.44058427 851.20528597 999.80166122 868.56288214 994.25 886.125 C993.99323486 886.95354492 993.73646973 887.78208984 993.47192383 888.63574219 C983.68637247 919.30204149 964.8432004 947.5909389 939 967 C937.99066406 967.78632812 936.98132813 968.57265625 935.94140625 969.3828125 C922.66077581 979.50043779 907.8369896 987.04157585 892.0625 992.4375 C891.18416504 992.74316895 890.30583008 993.04883789 889.40087891 993.36376953 C870.01714356 999.60399932 850.61842855 1000.59458449 830.40529595 1000.50766886 C826.74179249 1000.4964568 823.07834746 1000.50882907 819.41484857 1000.51797634 C813.01616377 1000.53079234 806.61761798 1000.52898842 800.21893311 1000.51719666 C790.70362381 1000.49971003 781.18842244 1000.50535167 771.67310732 1000.51536357 C754.67360866 1000.53250244 737.67417476 1000.52704881 720.67467749 1000.51200638 C705.8002051 1000.49892983 690.92575513 1000.49376341 676.05127716 1000.49632454 C674.5685275 1000.49656516 674.5685275 1000.49656516 673.05582329 1000.49681065 C669.04274027 1000.49747428 665.02965726 1000.4981767 661.01657426 1000.49893599 C623.41221107 1000.50595169 585.80788733 1000.49049592 548.20353417 1000.46431253 C514.82154947 1000.44119225 481.43960809 1000.43581284 448.05761719 1000.44604492 C439.5060514 1000.44864711 430.95448561 1000.45123217 422.40291977 1000.45364285 C420.8235333 1000.45408902 420.8235333 1000.45408902 419.21224002 1000.4545442 C391.28363879 1000.4621643 363.35504109 1000.45574241 335.42644143 1000.44494683 C332.42029021 1000.44379907 329.41413899 1000.44265589 326.40798777 1000.44152 C324.41395407 1000.44076476 322.41992037 1000.43999911 320.42588668 1000.43922299 C305.56091606 1000.4335729 290.69595667 1000.43488899 275.83098602 1000.43945122 C258.92602788 1000.44456594 242.02111165 1000.43867517 225.11616394 1000.41855692 C215.66389265 1000.40759629 206.21170381 1000.40475352 196.75943006 1000.41384545 C190.43660603 1000.41908499 184.11385221 1000.41331518 177.79104289 1000.39879211 C174.1948458 1000.39082847 170.59881467 1000.3873963 167.00261876 1000.39736467 C148.7470669 1000.44393349 131.40642527 999.79195882 113.875 994.25 C112.63218262 993.86485229 112.63218262 993.86485229 111.36425781 993.47192383 C80.69795851 983.68637247 52.4090611 964.8432004 33 939 C32.21367188 937.99066406 31.42734375 936.98132813 30.6171875 935.94140625 C15.20483414 915.71079252 4.95781295 891.12066398 1 866 C0.82778933 864.91479679 0.65557865 863.82959357 0.47814947 862.71150541 C-0.2982049 856.37149157 -0.13580195 849.99258496 -0.12304783 843.61591339 C-0.12378807 842.14333193 -0.1249673 840.67075063 -0.12654433 839.19816983 C-0.12961007 835.14678113 -0.12644093 831.09541756 -0.12226619 827.04403073 C-0.11882976 822.6383586 -0.12120322 818.23268899 -0.12284368 813.82701635 C-0.12491737 806.10409228 -0.12327371 798.3811759 -0.11920547 790.65825272 C-0.11317294 779.17452942 -0.11286944 767.69081099 -0.11374746 756.20708641 C-0.11506176 736.89007538 -0.11171846 717.57306777 -0.10573006 698.25605774 C-0.0998151 679.12697838 -0.09596453 659.99790045 -0.09487724 640.86882019 C-0.0948085 639.67988457 -0.09473976 638.49094895 -0.09466894 637.26598498 C-0.09433061 631.22809811 -0.09402923 625.19021125 -0.09374207 619.15232438 C-0.09164109 576.3746606 -0.08490214 533.59699867 -0.07543945 490.81933594 C-0.06625661 449.25878916 -0.05917221 407.6982429 -0.05493164 366.13769531 C-0.05480011 364.85684755 -0.05466859 363.57599979 -0.05453308 362.25633845 C-0.05321457 349.39365828 -0.05193875 336.53097811 -0.05069422 323.66829793 C-0.04815793 297.46502248 -0.04533668 271.26174707 -0.04234314 245.05847168 C-0.04220585 243.8536605 -0.04206856 242.64884933 -0.04192711 241.40752872 C-0.03272486 160.93835171 -0.01687948 80.46917572 0 0 Z " fill="#663399" transform="translate(0,0)"/>
<path d="M0 0 C1.1974585 0.00821777 2.39491699 0.01643555 3.62866211 0.02490234 C29.92784622 0.35683206 53.0228318 7.24404785 71.8125 26.25 C72.55371094 26.98089844 73.29492188 27.71179688 74.05859375 28.46484375 C93.95361364 49.29062481 99.8125 80.58669974 99.8125 108.25 C77.3725 108.25 54.9325 108.25 31.8125 108.25 C31.4825 102.64 31.1525 97.03 30.8125 91.25 C27.48584642 78.11112723 27.48584642 78.11112723 19.09375 67.953125 C11.36742947 63.61449885 0.5729021 64.09125052 -7.88671875 65.79296875 C-15.00671192 68.24767116 -18.77679034 72.41574913 -22.1171875 78.91796875 C-27.23331562 90.065153 -26.51493383 105.59586591 -23.1875 117.25 C-17.86439875 131.35525748 -5.9321659 138.03709471 7.11621094 144.03369141 C10.93289663 145.75541615 14.76021981 147.45285658 18.58824158 149.14920044 C52.01005434 163.95996523 82.80620835 181.65234758 96.8125 217.25 C105.44066214 241.94512745 106.48158803 270.66447718 101.8125 296.25 C101.6995459 296.91193359 101.5865918 297.57386719 101.47021484 298.25585938 C97.39322559 321.41883449 85.27766566 342.68493553 66.25 356.8125 C46.47579386 369.94452287 24.29318874 375.68121947 0.625 375.5625 C-0.54901367 375.55758545 -1.72302734 375.5526709 -2.93261719 375.54760742 C-28.22657569 375.20968457 -51.0198881 368.4081042 -70.1875 351.25 C-70.82171875 350.70988281 -71.4559375 350.16976563 -72.109375 349.61328125 C-95.05955885 328.71598082 -99.74635031 294.07299379 -101.1875 265.25 C-78.0875 265.25 -54.9875 265.25 -31.1875 265.25 C-30.1975 272.18 -29.2075 279.11 -28.1875 286.25 C-24.87135862 296.63475852 -22.42216625 303.03861758 -12.875 308.625 C-4.50656527 312.56612933 5.60050528 312.97430669 14.4375 310.0625 C22.60891362 305.67414824 25.95900439 300.99344991 28.72265625 292.4296875 C30.70373915 284.78178609 31.11933751 277.37213623 31.1875 269.5 C31.20828613 268.06321899 31.20828613 268.06321899 31.22949219 266.59741211 C31.15299473 254.92249125 27.37600527 243.65312934 19.484375 234.8359375 C10.71758209 226.51977413 0.63377838 221.34271477 -10.1875 216.25 C-53.67921489 195.65104862 -53.67921489 195.65104862 -67.1875 183.25 C-67.68620605 182.79367187 -68.18491211 182.33734375 -68.69873047 181.8671875 C-79.28209291 172.07274877 -86.09893133 161.83836301 -91.1875 148.25 C-91.47367188 147.53714844 -91.75984375 146.82429687 -92.0546875 146.08984375 C-97.08660381 132.62817073 -97.73905814 118.07872246 -97.625 103.875 C-97.62195862 103.06705994 -97.61891724 102.25911987 -97.61578369 101.42669678 C-97.54868389 89.35738067 -97.05707032 77.78851467 -93.1875 66.25 C-92.96787598 65.58468262 -92.74825195 64.91936523 -92.52197266 64.23388672 C-84.05458356 39.45493844 -67.73503446 20.66242608 -44.43701172 9.03271484 C-37.56548365 5.76539432 -30.62036399 3.83714432 -23.1875 2.25 C-22.09586548 1.98509766 -22.09586548 1.98509766 -20.98217773 1.71484375 C-13.96593462 0.11518286 -7.17725684 -0.05957906 0 0 Z " fill="#FEFEFE" transform="translate(816.1875,544.75)"/>
<path d="M0 0 C0.9600293 0.29801514 0.9600293 0.29801514 1.93945312 0.60205078 C26.55557136 8.4488793 43.00426817 23.9657915 54.91113281 46.58032227 C58.0843781 52.84783118 60.27752831 59.1870952 62 66 C62.556875 67.8871875 62.556875 67.8871875 63.125 69.8125 C65.86905898 81.47475068 66 93.02370958 66 105 C43.89 105 21.78 105 -1 105 C-1.66 98.73 -2.32 92.46 -3 86 C-4.91548825 79.0403927 -6.76557816 73.74671536 -11 68 C-11 67.34 -11 66.68 -11 66 C-11.7425 65.71125 -12.485 65.4225 -13.25 65.125 C-16 64 -16 64 -17.62109375 62.9453125 C-21.29867909 61.48394033 -24.89354299 61.71179733 -28.8125 61.75 C-29.59431641 61.74226562 -30.37613281 61.73453125 -31.18164062 61.7265625 C-39.30990222 61.75372461 -45.18360886 63.34570958 -51.203125 68.93359375 C-57.66808935 76.36830275 -58.18054996 85.3535411 -58.1875 94.75 C-58.19974609 95.6059375 -58.21199219 96.461875 -58.22460938 97.34375 C-58.24995959 108.49784543 -55.70827813 119.12969097 -48.0625 127.625 C-38.43318651 136.34588769 -25.75423206 140.97803281 -14.02954102 146.15493774 C6.40991795 155.18846029 24.62547101 164.58384646 41 180 C41.68835938 180.61230469 42.37671875 181.22460938 43.0859375 181.85546875 C60.53383208 198.02752914 69.27580594 224.1757418 70.22265625 247.44116211 C70.36577984 252.43991932 70.38654625 257.43698398 70.375 262.4375 C70.37445618 263.32162567 70.37391235 264.20575134 70.37335205 265.1166687 C70.31842756 284.53642936 68.45946721 302.30271266 60 320 C59.49855469 321.093125 58.99710938 322.18625 58.48046875 323.3125 C47.29346377 345.95869987 28.15652096 358.89483463 5 367.3125 C-22.94641178 375.74137755 -56.63259495 375.44616521 -83 362 C-84.37091797 361.34064453 -84.37091797 361.34064453 -85.76953125 360.66796875 C-107.71979268 349.52398987 -120.0776207 329.5005506 -128 307 C-129.15532622 303.36095628 -130.14162612 299.71962013 -131 296 C-131.29003906 294.77410156 -131.29003906 294.77410156 -131.5859375 293.5234375 C-133.89074654 283.00148321 -134 272.77729699 -134 262 C-110.9 262 -87.8 262 -64 262 C-63.01 270.91 -63.01 270.91 -62 280 C-59.37616382 290.68276159 -56.18732918 298.92242567 -46.69921875 305.03515625 C-38.75427159 309.5464251 -28.6835158 308.97678901 -20.02734375 306.67578125 C-14.63673114 304.87891038 -11.26181541 302.9569462 -8.25 298 C-3.36997972 287.86846627 -2.47667531 277.61421675 -2.5 266.5 C-2.47164062 265.27152344 -2.44328125 264.04304688 -2.4140625 262.77734375 C-2.38569076 249.40006788 -7.0925748 239.46213239 -16.04296875 229.79296875 C-20.60474034 225.30760875 -25.3512744 222.08659217 -31.1015625 219.33203125 C-31.79064697 218.99448318 -32.47973145 218.65693512 -33.18969727 218.30915833 C-35.456805 217.19985303 -37.72835903 216.09998803 -40 215 C-45.81218431 212.16452205 -51.61734686 209.31486138 -57.41796875 206.45581055 C-59.13720289 205.61131155 -60.85856278 204.77112628 -62.58203125 203.93530273 C-91.87012211 189.71624573 -114.66905567 172.43786827 -126.08984375 141 C-135.29458184 110.65991907 -132.92062395 71.61223772 -118.2824707 43.51538086 C-113.9322206 35.59777239 -108.38767263 29.31580009 -102 23 C-101.19691406 22.18660156 -100.39382813 21.37320313 -99.56640625 20.53515625 C-74.89180111 -3.16705066 -32.00466437 -10.04885789 0 0 Z " fill="#FEFEFE" transform="translate(624,548)"/>
<path d="M0 0 C2.28186967 -0.00967406 4.56282396 -0.04077751 6.84448242 -0.07226562 C30.69386094 -0.24445166 53.7083409 6.64830651 72.1159668 22.24023438 C72.77983398 22.75972656 73.44370117 23.27921875 74.12768555 23.81445312 C93.16089715 39.2579038 100.25441865 63.07094551 104.1159668 86.24023438 C104.1159668 97.46023438 104.1159668 108.68023438 104.1159668 120.24023438 C79.6959668 120.24023438 55.2759668 120.24023438 30.1159668 120.24023438 C29.7859668 111.33023438 29.4559668 102.42023438 29.1159668 93.24023438 C25.30151016 82.75047862 22.22669809 74.61828294 12.1159668 69.24023438 C3.88498411 66.03864988 -5.26044046 65.83537851 -13.5090332 69.11523438 C-14.98150909 69.7936789 -16.44157975 70.50009908 -17.8840332 71.24023438 C-18.59301758 71.5315625 -19.30200195 71.82289063 -20.0324707 72.12304688 C-22.37123696 73.5342012 -22.86192174 74.73514869 -23.8840332 77.24023438 C-24.2140332 77.93761719 -24.5440332 78.635 -24.8840332 79.35351562 C-30.7602756 92.27665808 -31.03756089 104.6213093 -31.06103516 118.58178711 C-31.06731045 120.22876627 -31.07395817 121.87574405 -31.08094788 123.52272034 C-31.10186825 128.90641314 -31.11234068 134.29010582 -31.12231445 139.67382812 C-31.12636685 141.537278 -31.13048391 143.40072773 -31.13466454 145.26417732 C-31.15369176 154.02500237 -31.16792654 162.78581914 -31.1762765 171.54666084 C-31.18603236 181.61255022 -31.21231912 191.67821875 -31.2527774 201.74403042 C-31.28308023 209.55504606 -31.29775881 217.36599889 -31.30105752 225.17707211 C-31.30339229 229.8277728 -31.31214506 234.47823693 -31.33751869 239.12887383 C-31.36105344 243.51292659 -31.36493242 247.89659123 -31.35475731 252.28069115 C-31.35426791 253.87442071 -31.36040847 255.46817108 -31.37431335 257.06184006 C-31.50596668 273.06876279 -30.27371829 289.58972471 -18.6340332 301.55273438 C-10.6618482 306.44475699 -3.254758 308.46250283 6.1159668 307.24023438 C13.83520539 305.23258818 18.20687354 301.85456236 23.1784668 295.67773438 C30.2189788 283.18650339 30.36379968 270.53140968 31.1159668 256.24023438 C55.2059668 256.24023438 79.2959668 256.24023438 104.1159668 256.24023438 C104.1159668 292.03759556 101.03541603 321.24487397 75.1159668 347.24023438 C62.08473411 359.33797368 46.11318728 366.59435256 29.1159668 371.24023438 C28.45999512 371.4195752 27.80402344 371.59891602 27.12817383 371.78369141 C7.77953354 376.75285253 -14.57608962 376.03607843 -33.8840332 371.24023438 C-35.65133789 370.83998047 -35.65133789 370.83998047 -37.4543457 370.43164062 C-50.67623028 367.10398511 -63.21797584 360.72583708 -73.8840332 352.24023438 C-75.12733398 351.25990234 -75.12733398 351.25990234 -76.39575195 350.25976562 C-94.61158535 334.94507568 -103.66324229 310.91534281 -105.67940521 287.66630363 C-106.12020535 280.28602396 -106.04089552 272.89122155 -106.04516602 265.50024414 C-106.04980261 263.61976526 -106.05482839 261.73928731 -106.06021118 259.85881042 C-106.07325795 254.77563675 -106.0797652 249.69247624 -106.08422184 244.60928845 C-106.08716569 241.42353915 -106.09127293 238.23779335 -106.09572601 235.05204582 C-106.10938192 225.05569304 -106.11905733 215.05934837 -106.1229279 205.06298691 C-106.12740113 193.57769247 -106.14492296 182.09251748 -106.1739285 170.60725933 C-106.19564667 161.69384511 -106.2056376 152.78046425 -106.20696902 143.86702389 C-106.20801001 138.56017789 -106.21376542 133.25344447 -106.23178864 127.94662666 C-106.24844523 122.9453724 -106.25034092 117.94431321 -106.24164963 112.94304085 C-106.2408885 111.12439953 -106.24509707 109.30574695 -106.25510788 107.48713303 C-106.41218439 77.13107188 -100.24762781 50.38978095 -78.8215332 27.74023438 C-57.77956156 6.70556897 -28.77401534 0.07342651 0 0 Z " fill="#FEFEFE" transform="translate(358.884033203125,545.759765625)"/>
</svg>
